<mxfile host="app.diagrams.net" modified="2024-06-16T11:50:18.370Z" agent="Mozilla/5.0 (Windows NT 10.0; Win64; x64) AppleWebKit/537.36 (KHTML, like Gecko) Chrome/125.0.0.0 Safari/537.36 Edg/125.0.0.0" etag="b7wtoeYvoCXhGCq-aoCu" version="24.5.4" type="github">
  <diagram name="Page-1" id="JtY1rRcKG2LShpWBseo7">
    <mxGraphModel dx="1945" dy="2400" grid="1" gridSize="10" guides="1" tooltips="1" connect="1" arrows="1" fold="1" page="1" pageScale="1" pageWidth="850" pageHeight="1100" math="0" shadow="0">
      <root>
        <mxCell id="0" />
        <mxCell id="1" parent="0" />
        <mxCell id="jwqv7RkrauKRxxCW72jE-2" value="" style="ellipse;html=1;shape=startState;fillColor=#000000;strokeColor=#ff0000;" vertex="1" parent="1">
          <mxGeometry x="270" y="150" width="30" height="30" as="geometry" />
        </mxCell>
        <mxCell id="jwqv7RkrauKRxxCW72jE-3" value="" style="edgeStyle=orthogonalEdgeStyle;html=1;verticalAlign=bottom;endArrow=open;endSize=8;strokeColor=#ff0000;rounded=0;" edge="1" source="jwqv7RkrauKRxxCW72jE-2" parent="1" target="jwqv7RkrauKRxxCW72jE-13">
          <mxGeometry relative="1" as="geometry">
            <mxPoint x="285" y="300" as="targetPoint" />
          </mxGeometry>
        </mxCell>
        <mxCell id="jwqv7RkrauKRxxCW72jE-5" value="" style="edgeStyle=orthogonalEdgeStyle;html=1;verticalAlign=bottom;endArrow=open;endSize=8;strokeColor=#ff0000;rounded=0;exitX=0.5;exitY=1;exitDx=0;exitDy=0;" edge="1" source="jwqv7RkrauKRxxCW72jE-13" parent="1" target="jwqv7RkrauKRxxCW72jE-6">
          <mxGeometry relative="1" as="geometry">
            <mxPoint x="285" y="460" as="targetPoint" />
            <mxPoint x="285" y="340" as="sourcePoint" />
          </mxGeometry>
        </mxCell>
        <mxCell id="jwqv7RkrauKRxxCW72jE-12" value="" style="edgeStyle=orthogonalEdgeStyle;rounded=0;orthogonalLoop=1;jettySize=auto;html=1;" edge="1" parent="1" source="jwqv7RkrauKRxxCW72jE-6" target="jwqv7RkrauKRxxCW72jE-11">
          <mxGeometry relative="1" as="geometry" />
        </mxCell>
        <mxCell id="jwqv7RkrauKRxxCW72jE-17" value="" style="edgeStyle=orthogonalEdgeStyle;rounded=0;orthogonalLoop=1;jettySize=auto;html=1;" edge="1" parent="1" source="jwqv7RkrauKRxxCW72jE-6" target="jwqv7RkrauKRxxCW72jE-16">
          <mxGeometry relative="1" as="geometry" />
        </mxCell>
        <mxCell id="jwqv7RkrauKRxxCW72jE-6" value="" style="rhombus;whiteSpace=wrap;html=1;fontColor=#000000;fillColor=#ffffc0;strokeColor=#ff0000;" vertex="1" parent="1">
          <mxGeometry x="245" y="440" width="80" height="40" as="geometry" />
        </mxCell>
        <mxCell id="jwqv7RkrauKRxxCW72jE-24" style="edgeStyle=orthogonalEdgeStyle;rounded=0;orthogonalLoop=1;jettySize=auto;html=1;exitX=0.5;exitY=1;exitDx=0;exitDy=0;entryX=0;entryY=0.5;entryDx=0;entryDy=0;" edge="1" parent="1" source="jwqv7RkrauKRxxCW72jE-11" target="jwqv7RkrauKRxxCW72jE-18">
          <mxGeometry relative="1" as="geometry" />
        </mxCell>
        <mxCell id="jwqv7RkrauKRxxCW72jE-11" value="Show Marble Product&lt;br&gt;Search Page" style="rounded=1;whiteSpace=wrap;html=1;fillColor=#ffffc0;strokeColor=#ff0000;fontColor=#000000;" vertex="1" parent="1">
          <mxGeometry x="80" y="590" width="120" height="60" as="geometry" />
        </mxCell>
        <mxCell id="jwqv7RkrauKRxxCW72jE-13" value="Select Search Item&lt;br&gt;Option" style="rounded=1;whiteSpace=wrap;html=1;arcSize=40;fontColor=#000000;fillColor=#ffffc0;strokeColor=#ff0000;" vertex="1" parent="1">
          <mxGeometry x="225" y="280" width="120" height="40" as="geometry" />
        </mxCell>
        <mxCell id="jwqv7RkrauKRxxCW72jE-23" style="edgeStyle=orthogonalEdgeStyle;rounded=0;orthogonalLoop=1;jettySize=auto;html=1;exitX=0.5;exitY=1;exitDx=0;exitDy=0;entryX=1;entryY=0.5;entryDx=0;entryDy=0;" edge="1" parent="1" source="jwqv7RkrauKRxxCW72jE-16" target="jwqv7RkrauKRxxCW72jE-18">
          <mxGeometry relative="1" as="geometry" />
        </mxCell>
        <mxCell id="jwqv7RkrauKRxxCW72jE-16" value="Show Raw Material&lt;br&gt;Search Page" style="rounded=1;whiteSpace=wrap;html=1;fillColor=#ffffc0;strokeColor=#ff0000;fontColor=#000000;" vertex="1" parent="1">
          <mxGeometry x="390" y="580" width="120" height="60" as="geometry" />
        </mxCell>
        <mxCell id="jwqv7RkrauKRxxCW72jE-28" value="" style="edgeStyle=orthogonalEdgeStyle;rounded=0;orthogonalLoop=1;jettySize=auto;html=1;" edge="1" parent="1" source="jwqv7RkrauKRxxCW72jE-18" target="jwqv7RkrauKRxxCW72jE-27">
          <mxGeometry relative="1" as="geometry" />
        </mxCell>
        <mxCell id="jwqv7RkrauKRxxCW72jE-30" value="" style="edgeStyle=orthogonalEdgeStyle;rounded=0;orthogonalLoop=1;jettySize=auto;html=1;" edge="1" parent="1" source="jwqv7RkrauKRxxCW72jE-18" target="jwqv7RkrauKRxxCW72jE-29">
          <mxGeometry relative="1" as="geometry" />
        </mxCell>
        <mxCell id="jwqv7RkrauKRxxCW72jE-18" value="" style="rhombus;whiteSpace=wrap;html=1;fontColor=#000000;fillColor=#ffffc0;strokeColor=#ff0000;" vertex="1" parent="1">
          <mxGeometry x="265" y="700" width="80" height="40" as="geometry" />
        </mxCell>
        <mxCell id="jwqv7RkrauKRxxCW72jE-22" value="[Search For Raw Material]" style="text;html=1;align=center;verticalAlign=middle;resizable=0;points=[];autosize=1;strokeColor=none;fillColor=none;" vertex="1" parent="1">
          <mxGeometry x="320" y="428" width="160" height="30" as="geometry" />
        </mxCell>
        <mxCell id="jwqv7RkrauKRxxCW72jE-32" value="" style="edgeStyle=orthogonalEdgeStyle;rounded=0;orthogonalLoop=1;jettySize=auto;html=1;" edge="1" parent="1" source="jwqv7RkrauKRxxCW72jE-27" target="jwqv7RkrauKRxxCW72jE-31">
          <mxGeometry relative="1" as="geometry" />
        </mxCell>
        <mxCell id="jwqv7RkrauKRxxCW72jE-27" value="Search option" style="rounded=1;whiteSpace=wrap;html=1;fillColor=#ffffc0;strokeColor=#ff0000;fontColor=#000000;" vertex="1" parent="1">
          <mxGeometry x="160" y="910" width="120" height="60" as="geometry" />
        </mxCell>
        <mxCell id="jwqv7RkrauKRxxCW72jE-58" style="edgeStyle=orthogonalEdgeStyle;rounded=0;orthogonalLoop=1;jettySize=auto;html=1;exitX=0.5;exitY=1;exitDx=0;exitDy=0;" edge="1" parent="1" source="jwqv7RkrauKRxxCW72jE-29">
          <mxGeometry relative="1" as="geometry">
            <mxPoint x="679.9999999999998" y="1500" as="targetPoint" />
          </mxGeometry>
        </mxCell>
        <mxCell id="jwqv7RkrauKRxxCW72jE-29" value="Cancel option" style="rounded=1;whiteSpace=wrap;html=1;fillColor=#ffffc0;strokeColor=#ff0000;fontColor=#000000;" vertex="1" parent="1">
          <mxGeometry x="340" y="890" width="120" height="60" as="geometry" />
        </mxCell>
        <mxCell id="jwqv7RkrauKRxxCW72jE-39" style="edgeStyle=orthogonalEdgeStyle;rounded=0;orthogonalLoop=1;jettySize=auto;html=1;entryX=0.5;entryY=0;entryDx=0;entryDy=0;" edge="1" parent="1" source="jwqv7RkrauKRxxCW72jE-31" target="jwqv7RkrauKRxxCW72jE-35">
          <mxGeometry relative="1" as="geometry" />
        </mxCell>
        <mxCell id="jwqv7RkrauKRxxCW72jE-31" value="Find match Searched&lt;br&gt;Item&amp;nbsp;" style="rounded=1;whiteSpace=wrap;html=1;fillColor=#ffffc0;strokeColor=#ff0000;fontColor=#000000;" vertex="1" parent="1">
          <mxGeometry x="160" y="1050" width="120" height="40" as="geometry" />
        </mxCell>
        <mxCell id="jwqv7RkrauKRxxCW72jE-42" value="" style="edgeStyle=orthogonalEdgeStyle;rounded=0;orthogonalLoop=1;jettySize=auto;html=1;" edge="1" parent="1" source="jwqv7RkrauKRxxCW72jE-35" target="jwqv7RkrauKRxxCW72jE-41">
          <mxGeometry relative="1" as="geometry" />
        </mxCell>
        <mxCell id="jwqv7RkrauKRxxCW72jE-44" style="edgeStyle=orthogonalEdgeStyle;rounded=0;orthogonalLoop=1;jettySize=auto;html=1;exitX=1;exitY=0.5;exitDx=0;exitDy=0;entryX=0.5;entryY=0;entryDx=0;entryDy=0;" edge="1" parent="1" source="jwqv7RkrauKRxxCW72jE-35" target="jwqv7RkrauKRxxCW72jE-43">
          <mxGeometry relative="1" as="geometry" />
        </mxCell>
        <mxCell id="jwqv7RkrauKRxxCW72jE-35" value="" style="rhombus;whiteSpace=wrap;html=1;fontColor=#000000;fillColor=#ffffc0;strokeColor=#ff0000;" vertex="1" parent="1">
          <mxGeometry x="180" y="1170" width="80" height="40" as="geometry" />
        </mxCell>
        <mxCell id="jwqv7RkrauKRxxCW72jE-41" value="Display Error&amp;nbsp;&lt;br&gt;Message" style="rounded=1;whiteSpace=wrap;html=1;fillColor=#ffffc0;strokeColor=#ff0000;fontColor=#000000;" vertex="1" parent="1">
          <mxGeometry x="10" y="1270" width="120" height="60" as="geometry" />
        </mxCell>
        <mxCell id="jwqv7RkrauKRxxCW72jE-47" value="" style="edgeStyle=orthogonalEdgeStyle;rounded=0;orthogonalLoop=1;jettySize=auto;html=1;" edge="1" parent="1" source="jwqv7RkrauKRxxCW72jE-43" target="jwqv7RkrauKRxxCW72jE-46">
          <mxGeometry relative="1" as="geometry" />
        </mxCell>
        <mxCell id="jwqv7RkrauKRxxCW72jE-49" value="" style="edgeStyle=orthogonalEdgeStyle;rounded=0;orthogonalLoop=1;jettySize=auto;html=1;" edge="1" parent="1" source="jwqv7RkrauKRxxCW72jE-43" target="jwqv7RkrauKRxxCW72jE-48">
          <mxGeometry relative="1" as="geometry" />
        </mxCell>
        <mxCell id="jwqv7RkrauKRxxCW72jE-43" value="" style="rhombus;whiteSpace=wrap;html=1;fontColor=#000000;fillColor=#ffffc0;strokeColor=#ff0000;" vertex="1" parent="1">
          <mxGeometry x="270" y="1250" width="80" height="40" as="geometry" />
        </mxCell>
        <mxCell id="jwqv7RkrauKRxxCW72jE-52" style="edgeStyle=orthogonalEdgeStyle;rounded=0;orthogonalLoop=1;jettySize=auto;html=1;entryX=0;entryY=0.5;entryDx=0;entryDy=0;" edge="1" parent="1" source="jwqv7RkrauKRxxCW72jE-46" target="jwqv7RkrauKRxxCW72jE-50">
          <mxGeometry relative="1" as="geometry" />
        </mxCell>
        <mxCell id="jwqv7RkrauKRxxCW72jE-46" value="Display Marble&lt;br&gt;Product Information" style="rounded=1;whiteSpace=wrap;html=1;fillColor=#ffffc0;strokeColor=#ff0000;fontColor=#000000;" vertex="1" parent="1">
          <mxGeometry x="145" y="1380" width="120" height="60" as="geometry" />
        </mxCell>
        <mxCell id="jwqv7RkrauKRxxCW72jE-51" style="edgeStyle=orthogonalEdgeStyle;rounded=0;orthogonalLoop=1;jettySize=auto;html=1;entryX=1;entryY=0.5;entryDx=0;entryDy=0;" edge="1" parent="1" source="jwqv7RkrauKRxxCW72jE-48" target="jwqv7RkrauKRxxCW72jE-50">
          <mxGeometry relative="1" as="geometry" />
        </mxCell>
        <mxCell id="jwqv7RkrauKRxxCW72jE-48" value="Display Raw Material Information" style="rounded=1;whiteSpace=wrap;html=1;fillColor=#ffffc0;strokeColor=#ff0000;fontColor=#000000;" vertex="1" parent="1">
          <mxGeometry x="400" y="1370" width="120" height="60" as="geometry" />
        </mxCell>
        <mxCell id="jwqv7RkrauKRxxCW72jE-54" value="" style="edgeStyle=orthogonalEdgeStyle;rounded=0;orthogonalLoop=1;jettySize=auto;html=1;" edge="1" parent="1" source="jwqv7RkrauKRxxCW72jE-50" target="jwqv7RkrauKRxxCW72jE-53">
          <mxGeometry relative="1" as="geometry" />
        </mxCell>
        <mxCell id="jwqv7RkrauKRxxCW72jE-50" value="" style="rhombus;whiteSpace=wrap;html=1;fontColor=#000000;fillColor=#ffffc0;strokeColor=#ff0000;" vertex="1" parent="1">
          <mxGeometry x="320" y="1490" width="80" height="40" as="geometry" />
        </mxCell>
        <mxCell id="jwqv7RkrauKRxxCW72jE-56" style="edgeStyle=orthogonalEdgeStyle;rounded=0;orthogonalLoop=1;jettySize=auto;html=1;entryX=0.5;entryY=0;entryDx=0;entryDy=0;" edge="1" parent="1" source="jwqv7RkrauKRxxCW72jE-53" target="jwqv7RkrauKRxxCW72jE-55">
          <mxGeometry relative="1" as="geometry" />
        </mxCell>
        <mxCell id="jwqv7RkrauKRxxCW72jE-53" value="Review Search Resultts" style="rounded=1;whiteSpace=wrap;html=1;fillColor=#ffffc0;strokeColor=#ff0000;fontColor=#000000;" vertex="1" parent="1">
          <mxGeometry x="300" y="1600" width="120" height="50" as="geometry" />
        </mxCell>
        <mxCell id="jwqv7RkrauKRxxCW72jE-55" value="" style="ellipse;html=1;shape=endState;fillColor=#000000;strokeColor=#ff0000;" vertex="1" parent="1">
          <mxGeometry x="345" y="1720" width="30" height="30" as="geometry" />
        </mxCell>
        <mxCell id="jwqv7RkrauKRxxCW72jE-59" style="edgeStyle=orthogonalEdgeStyle;rounded=0;orthogonalLoop=1;jettySize=auto;html=1;" edge="1" parent="1">
          <mxGeometry relative="1" as="geometry">
            <mxPoint x="670" y="1730" as="targetPoint" />
            <mxPoint x="680" y="1500" as="sourcePoint" />
          </mxGeometry>
        </mxCell>
        <mxCell id="jwqv7RkrauKRxxCW72jE-60" style="edgeStyle=orthogonalEdgeStyle;rounded=0;orthogonalLoop=1;jettySize=auto;html=1;entryX=1;entryY=0.5;entryDx=0;entryDy=0;" edge="1" parent="1">
          <mxGeometry relative="1" as="geometry">
            <mxPoint x="375" y="1742.5" as="targetPoint" />
            <mxPoint x="670" y="1720" as="sourcePoint" />
            <Array as="points">
              <mxPoint x="528" y="1728.5" />
              <mxPoint x="528" y="1742.5" />
            </Array>
          </mxGeometry>
        </mxCell>
        <mxCell id="jwqv7RkrauKRxxCW72jE-61" value="[Search For Marble Product]" style="text;whiteSpace=wrap;html=1;" vertex="1" parent="1">
          <mxGeometry x="95" y="428" width="170" height="40" as="geometry" />
        </mxCell>
        <mxCell id="jwqv7RkrauKRxxCW72jE-62" value="[Employee want to cancel &lt;br&gt;Search operation]" style="text;html=1;align=center;verticalAlign=middle;resizable=0;points=[];autosize=1;strokeColor=none;fillColor=none;" vertex="1" parent="1">
          <mxGeometry x="340" y="765" width="160" height="40" as="geometry" />
        </mxCell>
        <mxCell id="jwqv7RkrauKRxxCW72jE-63" value="[Employee want to&lt;br&gt;confirm Search operation]" style="text;html=1;align=center;verticalAlign=middle;resizable=0;points=[];autosize=1;strokeColor=none;fillColor=none;" vertex="1" parent="1">
          <mxGeometry x="130" y="785" width="160" height="40" as="geometry" />
        </mxCell>
        <mxCell id="jwqv7RkrauKRxxCW72jE-64" value="[Item Found]" style="text;html=1;align=center;verticalAlign=middle;resizable=0;points=[];autosize=1;strokeColor=none;fillColor=none;" vertex="1" parent="1">
          <mxGeometry x="255" y="1150" width="90" height="30" as="geometry" />
        </mxCell>
        <mxCell id="jwqv7RkrauKRxxCW72jE-65" value="[Item not Found]" style="text;html=1;align=center;verticalAlign=middle;resizable=0;points=[];autosize=1;strokeColor=none;fillColor=none;" vertex="1" parent="1">
          <mxGeometry x="70" y="1150" width="110" height="30" as="geometry" />
        </mxCell>
        <mxCell id="jwqv7RkrauKRxxCW72jE-66" value="[Raw Material Search]" style="text;html=1;align=center;verticalAlign=middle;resizable=0;points=[];autosize=1;strokeColor=none;fillColor=none;" vertex="1" parent="1">
          <mxGeometry x="325" y="1240" width="140" height="30" as="geometry" />
        </mxCell>
        <mxCell id="jwqv7RkrauKRxxCW72jE-67" value="[Marble Product Search]" style="text;html=1;align=center;verticalAlign=middle;resizable=0;points=[];autosize=1;strokeColor=none;fillColor=none;" vertex="1" parent="1">
          <mxGeometry x="150" y="1230" width="150" height="30" as="geometry" />
        </mxCell>
      </root>
    </mxGraphModel>
  </diagram>
</mxfile>
